<?xml version="1.0" encoding="utf-8"?>
<!-- Generator: Adobe Illustrator 26.0.3, SVG Export Plug-In . SVG Version: 6.00 Build 0)  -->
<svg version="1.1" id="Layer_1" xmlns="http://www.w3.org/2000/svg" xmlns:xlink="http://www.w3.org/1999/xlink" x="0px" y="0px"
	 viewBox="0 0 720.7 177.8" style="enable-background:new 0 0 720.7 177.8;" xml:space="preserve">
<style type="text/css">
	.st0{enable-background:new    ;}
	.st1{fill:#FFFFFF;}
</style>
<g id="Group_55" transform="translate(-2003 5603)">
	<g class="st0">
		<path class="st1" d="M2003.5-5430c0.6-3.9,1-10.2,1.2-18.8h4.1c0.2,5.9,0.5,9.4,1,10.4c0.5,1.1,1.6,2.2,3.4,3.4
			c1.8,1.2,4.2,2.3,7.1,3.2c3,0.9,5.9,1.4,8.7,1.4c4.1,0,7.8-0.9,11.3-2.8c3.4-1.9,5.9-4.3,7.5-7.4c1.6-3,2.4-6.3,2.4-9.8
			c0-2.7-0.4-5-1.2-6.9s-2-3.5-3.6-4.7c-1.6-1.2-3.6-2-6-2.5c-1.5-0.2-4.5-0.6-9-1.2c-4.5-0.6-8.3-1.2-11.4-1.9
			c-4.2-1.3-7.3-2.8-9.3-4.5c-2-1.7-3.6-4-4.8-6.8c-1.2-2.8-1.8-5.9-1.8-9.1c0-4.8,1.2-9.3,3.7-13.5c2.5-4.2,6.2-7.5,11-9.8
			c4.9-2.3,10.1-3.5,15.8-3.5c3.4,0,7.2,0.5,11.2,1.4c4.1,0.9,7.8,2.3,11.4,4c-0.6,2.5-1,4.9-1.2,7.1c-0.2,2.2-0.4,5.4-0.5,9.7h-4.1
			c-0.1-6.2-0.3-9.6-0.5-10.2c-1-1.5-2.4-2.8-4.1-3.9c-4.2-2.3-8.5-3.5-13-3.5c-5.9,0-10.5,1.8-14,5.4c-3.5,3.6-5.2,8.2-5.2,13.9
			c0,3.4,0.6,6.1,1.9,8c1.3,1.9,3.5,3.4,6.7,4.5c2.2,0.8,5.9,1.5,10.9,2.1c5,0.7,9.6,1.4,13.6,2.1c3.8,1.1,6.6,2.5,8.4,4
			c1.8,1.6,3.3,3.6,4.5,6.1c1.2,2.5,1.8,5.5,1.8,8.9c0,8-3.3,15-10,21s-15.3,9-25.9,9C2017.3-5425.2,2010-5426.8,2003.5-5430z"/>
		<path class="st1" d="M2067.5-5474.5v-2.5c4-1.5,7.2-2.9,9.6-4.1c0-9.6-0.1-15.7-0.4-18.4c4.2-1.5,7.6-3,10.2-4.7l1.5,1.2
			c-0.4,3.4-0.9,10.7-1.5,22.2c3.2,0,5.2,0.1,5.8,0.1c0.4,0,2.4,0,6.2-0.1c2.1,0,3.7-0.1,4.7-0.2l0.4,0.4l-1.3,5.6
			c-2.5,0-4.9-0.1-7-0.1c-2.1,0-5.1,0-8.9,0.1l-0.4,24.6c-0.1,6-0.1,9.6,0.1,10.8c0.2,1.2,0.6,2.2,1.2,3.1c0.6,0.9,1.3,1.6,2.2,2.1
			c0.9,0.5,2.5,0.9,4.6,1.2c1.7,0,3-0.1,4-0.2c1-0.1,2.3-0.5,3.9-1.1l0.7,2.4c-1.9,1.5-3.7,3-5.5,4.7c-1.5,0.6-3,0.9-4.3,1.1
			s-2.9,0.3-4.6,0.3c-2.1,0-3.8-0.2-5.1-0.7s-2.4-1.2-3.5-2c-1.1-0.9-1.9-2-2.6-3.3c-0.7-1.3-1.1-3.4-1.3-6.3c0-2.7,0.1-5.8,0.2-9
			c0-0.6,0.1-1.4,0.1-2.1v-25.1h-2.5C2072.2-5474.8,2070-5474.7,2067.5-5474.5z"/>
		<path class="st1" d="M2158.6-5436.4l-1.9,4.4c-2.8,1.7-4.8,2.9-6.1,3.5c-1.9,0.8-4.1,1.6-6.5,2.1c-2.4,0.6-5,0.9-7.7,0.9
			c-5.3,0-10.1-1.1-14.5-3.3c-4.3-2.2-7.7-5.5-10.1-10c-2.4-4.4-3.6-9.6-3.6-15.5c0-4.6,0.6-8.8,1.9-12.6c1.3-3.7,2.7-6.5,4.3-8.3
			c1.2-1.3,3-2.8,5.4-4.5c2.5-1.7,4.9-3,7.3-4c3.2-1.3,6.6-2,10.4-2c4.5,0,8.6,1,12.3,3.1c3.7,2.1,6.3,4.9,8,8.4
			c1.7,3.6,2.5,7.6,2.5,12c0,1.1-0.1,2.5-0.2,4.1c-2.9,0.6-5.5,0.9-7.8,1.1c-4.4,0.3-8.7,0.5-13.1,0.5h-19.5c0.1,5.8,1.1,10.4,3,14
			c1.9,3.6,4.6,6.2,7.9,7.9c3.4,1.7,6.9,2.5,10.5,2.5c2.5,0,4.9-0.4,7.4-1.2c2.4-0.8,5.5-2.2,9.1-4.3L2158.6-5436.4z M2119.8-5461.2
			c1.1,0.1,3.3,0.2,6.4,0.4c6,0.2,10.2,0.3,12.4,0.3c5.4,0,8.9-0.1,10.6-0.3c0-1,0.1-1.7,0.1-2.2c0-6.4-1.3-11-3.9-14
			c-2.6-3-6-4.5-10.4-4.5c-4.6,0-8.3,1.6-11,4.9C2121.3-5473.4,2119.8-5468.3,2119.8-5461.2z"/>
		<path class="st1" d="M2177.7-5468.5l-3.2-0.8c0-0.9,0.1-2.2,0.1-3.8c0-1.7,0-3-0.1-4.1c5.1-3.3,9.3-5.6,12.6-6.8
			c2.5-0.8,5.3-1.3,8.4-1.3c4.6,0,8.5,0.9,11.6,2.6c3.1,1.7,5.5,4.2,7,7.4c1,2.3,1.6,5.3,1.6,9.3l-0.2,11.1v18
			c0,1.9,0.2,3.3,0.5,4.2c0.2,0.6,0.6,1,1.2,1.3c0.4,0.2,1.3,0.4,2.5,0.5l3.9,0.4v3.5c-3.3-0.3-6.2-0.4-8.7-0.4
			c-2.4,0-5.7,0.1-9.7,0.4l0.3-10.7c-8.2,6.2-13.1,9.7-14.7,10.5c-1.5,0.8-3.5,1.2-5.8,1.2c-4.9,0-8.7-1.3-11.4-3.9
			s-4.1-6.1-4.1-10.4c0-2.8,0.5-5.3,1.4-7.6c0.9-2.3,2.1-4.1,3.4-5.5c1.3-1.4,2.7-2.4,4.1-3c2.3-1.1,6.1-2.3,11.4-3.5
			c5.3-1.3,10.5-2.2,15.7-2.8c0-3.8-0.4-6.8-1.4-9c-1-2.1-2.6-3.9-4.9-5.3c-2.3-1.4-5.1-2.1-8.4-2.1c-2.4,0-4.5,0.3-6.3,1
			c-1.8,0.6-2.9,1.2-3.3,1.6l-1.1,2.2C2179-5471.7,2178.2-5469.8,2177.7-5468.5z M2205.5-5459c-5.2,0.9-9.7,1.9-13.4,3
			c-3.7,1.1-6.3,2.2-7.9,3.4c-0.9,0.7-1.7,1.7-2.4,3.1c-1.1,2-1.6,4.3-1.6,6.7c0,3,0.8,5.3,2.5,7c1.7,1.7,4,2.5,6.9,2.5
			c2.7,0,5.4-0.8,8-2.3c2.6-1.6,5.3-3.9,7.9-7V-5459z"/>
		<path class="st1" d="M2229.6-5427v-3.5l5.7-0.1c0.9,0,1.6-0.2,2-0.5c0.5-0.3,0.8-0.6,1.1-1c0.4-0.8,0.7-2.2,0.8-4.3
			c0-0.5,0.2-6.3,0.4-17.4v-25.1c0-6.7-0.1-13.7-0.4-20.9c-0.2-4.8-0.4-7.5-0.7-8.1c-0.2-0.4-0.5-0.7-1-0.8
			c-0.6-0.3-3.4-0.4-8.4-0.4v-3.6c9.1-1.1,15.5-2.5,19-4.2c0.5-0.2,0.9-0.4,1.2-0.4c0.3,0,0.5,0.1,0.7,0.3c0.2,0.2,0.2,0.4,0.2,0.8
			c0,0.3,0,0.7-0.1,1.2l-0.1,2c-0.2,7.2-0.3,13.4-0.4,18.5l-0.1,9.4v31.4c0.2,10.5,0.3,16.2,0.4,17c0,2,0.3,3.5,0.7,4.4
			c0.2,0.4,0.4,0.7,0.7,0.9c0.3,0.3,0.8,0.5,1.5,0.6c0.3,0,2.5,0.1,6.7,0.2v3.5c-5.5-0.3-10.3-0.5-14.5-0.5
			C2241.3-5427.5,2236.1-5427.3,2229.6-5427z"/>
		<path class="st1" d="M2265.4-5474.5v-2.5c4-1.5,7.2-2.9,9.6-4.1c0-9.6-0.1-15.7-0.4-18.4c4.2-1.5,7.6-3,10.2-4.7l1.5,1.2
			c-0.4,3.4-0.9,10.7-1.5,22.2c3.2,0,5.2,0.1,5.8,0.1c0.4,0,2.4,0,6.2-0.1c2.1,0,3.7-0.1,4.7-0.2l0.4,0.4l-1.3,5.6
			c-2.5,0-4.9-0.1-7-0.1c-2.1,0-5.1,0-8.9,0.1l-0.4,24.6c-0.1,6-0.1,9.6,0.1,10.8c0.2,1.2,0.6,2.2,1.2,3.1c0.6,0.9,1.3,1.6,2.2,2.1
			c0.9,0.5,2.5,0.9,4.6,1.2c1.7,0,3-0.1,4-0.2c1-0.1,2.3-0.5,3.9-1.1l0.7,2.4c-1.9,1.5-3.7,3-5.5,4.7c-1.5,0.6-3,0.9-4.3,1.1
			s-2.9,0.3-4.6,0.3c-2.1,0-3.8-0.2-5.1-0.7s-2.4-1.2-3.5-2c-1.1-0.9-1.9-2-2.6-3.3c-0.7-1.3-1.1-3.4-1.3-6.3c0-2.7,0.1-5.8,0.2-9
			c0-0.6,0.1-1.4,0.1-2.1v-25.1h-2.5C2270.2-5474.8,2267.9-5474.7,2265.4-5474.5z"/>
		<path class="st1" d="M2303.9-5427v-3.4l5.7-0.1c0.9,0,1.6-0.2,2-0.5c0.5-0.3,0.8-0.6,1.1-1c0.4-0.8,0.7-2.2,0.8-4.3
			c0-0.5,0.2-6.3,0.4-17.4v-31.3c0-6.7-0.1-13.7-0.4-20.9c-0.2-4.8-0.4-7.6-0.7-8.1c-0.2-0.4-0.5-0.7-1-0.8
			c-0.6-0.3-3.4-0.4-8.4-0.4v-3.6c9.1-1.1,15.5-2.5,19-4.2c0.5-0.2,0.9-0.4,1.2-0.4c0.3,0,0.5,0.1,0.7,0.3c0.2,0.2,0.2,0.4,0.2,0.8
			c0,0.3,0,0.7-0.1,1.2l-0.1,2c-0.2,7.2-0.3,13.4-0.4,18.5l-0.1,9.4v17.7c0.6-0.4,2.2-1.8,4.8-4.1c2.6-2.3,4.2-3.7,4.7-4.1
			c0.8-0.7,1.4-1.2,1.8-1.5c0.8-0.4,1.9-0.8,3.5-1.2c2.1-0.6,4.1-0.8,6.1-0.8c3.7,0,7.2,0.9,10.6,2.6s5.6,4,6.9,6.6
			c1.3,2.7,1.9,6.6,1.9,11.8v10.7l0.2,8.4c0.1,5.2,0.2,8.1,0.2,8.8c0.1,1.9,0.3,3.4,0.7,4.2c0.2,0.4,0.4,0.7,0.7,1
			c0.3,0.3,0.8,0.5,1.5,0.6c0.2,0,2.3,0.1,6.3,0.2v3.4c-4.6-0.2-8-0.3-10.1-0.3c-1.8,0-5.4,0.1-11,0.3c0.6-6,0.8-11.8,0.8-17.4v-15
			c0-4.7-0.3-8.1-1-10.1c-0.7-2.1-2.1-3.9-4.2-5.5s-4.9-2.5-8.4-2.5c-2.2,0-4.2,0.3-5.9,1c-1.7,0.6-3.3,1.6-4.8,2.9
			s-2.7,2.7-3.7,4.2c-0.5,0.7-0.8,1.6-1,2.6c-0.2,1-0.2,3.1-0.2,6.2v7.1c0.2,10.5,0.3,16.1,0.4,17c0.1,2,0.3,3.5,0.7,4.4
			c0.2,0.4,0.4,0.7,0.7,1c0.3,0.3,0.8,0.5,1.5,0.6c0.3,0,2.5,0.1,6.7,0.2v3.4c-7.2-0.3-12.2-0.4-14.9-0.4
			C2317-5427.4,2311.8-5427.3,2303.9-5427z"/>
		<path class="st1" d="M2410.2-5430c0.6-3.9,1-10.2,1.2-18.8h4.1c0.2,5.9,0.5,9.4,1,10.4c0.5,1.1,1.6,2.2,3.4,3.4
			c1.8,1.2,4.2,2.3,7.1,3.2c3,0.9,5.9,1.4,8.7,1.4c4.1,0,7.8-0.9,11.3-2.8c3.4-1.9,5.9-4.3,7.5-7.4c1.6-3,2.4-6.3,2.4-9.8
			c0-2.7-0.4-5-1.2-6.9s-2-3.5-3.6-4.7c-1.6-1.2-3.6-2-6-2.5c-1.5-0.2-4.5-0.6-9-1.2c-4.5-0.6-8.3-1.2-11.4-1.9
			c-4.2-1.3-7.3-2.8-9.3-4.5c-2-1.7-3.6-4-4.8-6.8c-1.2-2.8-1.8-5.9-1.8-9.1c0-4.8,1.2-9.3,3.7-13.5c2.5-4.2,6.2-7.5,11-9.8
			c4.9-2.3,10.1-3.5,15.8-3.5c3.4,0,7.2,0.5,11.2,1.4c4.1,0.9,7.8,2.3,11.4,4c-0.6,2.5-1,4.9-1.2,7.1c-0.2,2.2-0.4,5.4-0.5,9.7h-4.1
			c-0.1-6.2-0.3-9.6-0.5-10.2c-1-1.5-2.4-2.8-4.1-3.9c-4.2-2.3-8.5-3.5-13-3.5c-5.9,0-10.5,1.8-14,5.4c-3.5,3.6-5.2,8.2-5.2,13.9
			c0,3.4,0.6,6.1,1.9,8c1.3,1.9,3.5,3.4,6.7,4.5c2.2,0.8,5.9,1.5,10.9,2.1c5,0.7,9.6,1.4,13.6,2.1c3.8,1.1,6.6,2.5,8.4,4
			c1.8,1.6,3.3,3.6,4.5,6.1c1.2,2.5,1.8,5.5,1.8,8.9c0,8-3.3,15-10,21s-15.3,9-25.9,9C2423.9-5425.2,2416.7-5426.8,2410.2-5430z"/>
		<path class="st1" d="M2524.8-5436.4l-1.9,4.4c-2.8,1.7-4.8,2.9-6.1,3.5c-1.9,0.8-4.1,1.6-6.5,2.1c-2.4,0.6-5,0.9-7.7,0.9
			c-5.3,0-10.1-1.1-14.5-3.3c-4.3-2.2-7.7-5.5-10.1-10c-2.4-4.4-3.6-9.6-3.6-15.5c0-4.6,0.6-8.8,1.9-12.6c1.3-3.7,2.7-6.5,4.3-8.3
			c1.2-1.3,3-2.8,5.4-4.5c2.5-1.7,4.9-3,7.3-4c3.2-1.3,6.6-2,10.4-2c4.5,0,8.6,1,12.3,3.1c3.7,2.1,6.3,4.9,8,8.4
			c1.7,3.6,2.5,7.6,2.5,12c0,1.1-0.1,2.5-0.2,4.1c-2.9,0.6-5.5,0.9-7.8,1.1c-4.4,0.3-8.7,0.5-13.1,0.5H2486c0.1,5.8,1.1,10.4,3,14
			c1.9,3.6,4.6,6.2,7.9,7.9c3.4,1.7,6.9,2.5,10.5,2.5c2.5,0,4.9-0.4,7.4-1.2c2.4-0.8,5.5-2.2,9.1-4.3L2524.8-5436.4z M2486-5461.2
			c1.1,0.1,3.3,0.2,6.4,0.4c6,0.2,10.2,0.3,12.4,0.3c5.4,0,8.9-0.1,10.6-0.3c0-1,0.1-1.7,0.1-2.2c0-6.4-1.3-11-3.9-14
			c-2.6-3-6-4.5-10.4-4.5c-4.6,0-8.3,1.6-11,4.9C2487.4-5473.4,2486-5468.3,2486-5461.2z"/>
		<path class="st1" d="M2533.6-5427v-3.5c4.6-0.1,7-0.2,7.4-0.2c0.7-0.1,1.2-0.3,1.5-0.6c0.3-0.3,0.6-0.6,0.8-1.1
			c0.4-0.9,0.6-2.4,0.7-4.4c0.2-10.8,0.4-16.4,0.4-16.9v-7.2c0-3.2-0.1-6.7-0.2-10.4c-0.1-2.4-0.3-3.8-0.5-4.2
			c-0.3-0.4-0.7-0.8-1.4-1c-0.7-0.2-3.3-0.3-7.9-0.3v-3.5c8.2-1.1,14.1-2.6,17.9-4.4c0.8-0.4,1.4-0.6,1.6-0.6c0.3,0,0.5,0.1,0.7,0.3
			c0.2,0.2,0.2,0.5,0.2,0.9c0,0.3,0,0.6-0.1,1c-0.2,2.5-0.3,6.3-0.4,11.4c1.8-2.1,3.5-4.2,5-6.2c1.5-2.1,2.6-3.4,3.3-4
			c1.2-1,2.6-1.9,4.2-2.5c1.6-0.6,3.2-0.9,4.9-0.9s3.4,0.4,5,1.1l0.4,0.8c-0.6,5.4-0.9,10.1-1,14.2h-2.7c-0.9-1.9-2-3.3-3.2-4.2
			c-1.2-0.9-2.8-1.3-4.6-1.3c-3.1,0-5.8,1.3-7.9,3.8c-2.2,2.6-3.3,6.4-3.3,11.5v6.2c0,2.7,0.1,7.5,0.3,14.6c0,2.5,0.1,4.1,0.3,4.8
			c0.2,0.7,0.4,1.2,0.6,1.5c0.3,0.3,0.7,0.6,1.3,0.8c1.2,0.4,4.5,0.7,9.8,1.1v3.5c-7.1-0.3-13.2-0.4-18.2-0.4
			C2543.4-5427.4,2538.4-5427.3,2533.6-5427z"/>
		<path class="st1" d="M2582.4-5476.8v-3.5c7.8-0.9,14.4-2.6,19.7-5.1l1.3,1c-0.3,8.6-0.5,15.2-0.5,19.7v11
			c0.2,10.5,0.3,16.2,0.4,17c0,2,0.3,3.5,0.7,4.4c0.2,0.4,0.5,0.7,0.8,0.9c0.3,0.3,0.8,0.5,1.5,0.6c0.2,0,2.5,0.1,6.7,0.2v3.4
			c-6.1-0.3-11-0.4-14.7-0.4c-3.2,0-8.5,0.1-15.9,0.4v-3.4l5.8-0.1c0.8,0,1.5-0.2,2-0.5c0.5-0.3,0.8-0.6,1.1-1
			c0.4-0.8,0.7-2.2,0.8-4.3c0-0.5,0.1-6.3,0.4-17.4v-10.7c0-6-0.2-9.6-0.6-10.7c-0.2-0.6-0.7-1.1-1.3-1.4
			C2589.9-5476.6,2587.2-5476.8,2582.4-5476.8z M2597.2-5512.2c1.9,0,3.5,0.7,4.8,2c1.3,1.3,2,2.9,2,4.8c0,1.9-0.7,3.5-2,4.8
			s-2.9,2-4.8,2c-1.9,0-3.5-0.7-4.8-2s-2-2.9-2-4.8c0-1.9,0.7-3.5,2-4.8S2595.3-5512.2,2597.2-5512.2z"/>
		<path class="st1" d="M2669.3-5436.4l-1.9,4.4c-2.8,1.7-4.8,2.9-6.1,3.5c-1.9,0.8-4.1,1.6-6.5,2.1c-2.4,0.6-5,0.9-7.7,0.9
			c-5.3,0-10.1-1.1-14.5-3.3c-4.3-2.2-7.7-5.5-10.1-10c-2.4-4.4-3.6-9.6-3.6-15.5c0-4.6,0.6-8.8,1.9-12.6c1.3-3.7,2.7-6.5,4.3-8.3
			c1.2-1.3,3-2.8,5.4-4.5c2.5-1.7,4.9-3,7.3-4c3.2-1.3,6.6-2,10.4-2c4.5,0,8.6,1,12.3,3.1c3.7,2.1,6.3,4.9,8,8.4
			c1.7,3.6,2.5,7.6,2.5,12c0,1.1-0.1,2.5-0.2,4.1c-2.9,0.6-5.5,0.9-7.8,1.1c-4.4,0.3-8.7,0.5-13.1,0.5h-19.5c0.1,5.8,1.1,10.4,3,14
			c1.9,3.6,4.6,6.2,7.9,7.9c3.4,1.7,6.9,2.5,10.5,2.5c2.5,0,4.9-0.4,7.4-1.2c2.4-0.8,5.5-2.2,9.1-4.3L2669.3-5436.4z M2630.4-5461.2
			c1.1,0.1,3.3,0.2,6.4,0.4c6,0.2,10.2,0.3,12.4,0.3c5.4,0,8.9-0.1,10.6-0.3c0-1,0.1-1.7,0.1-2.2c0-6.4-1.3-11-3.9-14
			c-2.6-3-6-4.5-10.4-4.5c-4.6,0-8.3,1.6-11,4.9C2631.9-5473.4,2630.5-5468.3,2630.4-5461.2z"/>
		<path class="st1" d="M2680.8-5445.3h3.6c0,2.3,0.2,4.2,0.4,5.6c0.2,1.4,0.5,2.7,1,4c0.5,1.3,1.2,2.4,2.2,3.3
			c1,0.9,2.1,1.6,3.3,2.1c1.2,0.5,2.4,0.8,3.6,1c1.2,0.2,3.1,0.2,5.6,0.2c4.1,0,7.5-1.1,10.1-3.3c2.6-2.2,4-5.2,4-9
			c0-1.7-0.4-3.2-1.2-4.5c-0.8-1.3-2-2.3-3.6-3c-1.6-0.7-4.9-1.7-10-2.8c-5.1-1.2-8.4-2-9.9-2.5c-2.3-0.8-4.1-1.9-5.4-3.1
			s-2.4-2.7-3.2-4.6c-0.8-1.9-1.2-3.9-1.2-6.1c0-3.2,0.8-6.1,2.5-8.8c1.7-2.7,4.3-4.9,7.9-6.5c3.6-1.7,7.5-2.5,11.7-2.5
			c2.5,0,5.5,0.4,8.8,1.1c3.3,0.7,6.1,1.6,8.2,2.6c-0.3,4.5-0.5,9-0.6,13.7h-3.5c-0.2-2.9-0.4-4.9-0.7-5.8c-0.3-0.9-0.6-1.8-1.1-2.5
			c-0.4-0.7-1.2-1.5-2.3-2.3c-1.1-0.8-2.5-1.6-4.2-2.2c-1.7-0.6-3.8-1-6.3-1c-3.6,0-6.4,1-8.6,3.1c-2.2,2.1-3.2,4.6-3.2,7.4
			c0,1.6,0.3,2.9,0.9,4.1c0.6,1.1,1.5,2,2.5,2.8c1,0.7,2.5,1.3,4.4,1.9l10.1,2.5c5.1,1.3,8.6,2.4,10.5,3.3c1.9,0.9,3.5,2.4,4.6,4.3
			c1.2,2,1.8,4.3,1.8,7.1c0,5.4-2.3,10.2-6.8,14.3c-4.5,4.1-10.5,6.1-18.1,6.1c-3.5,0-8.1-0.5-13.9-1.6c-3.2-0.6-4.9-1-5.1-1.3
			c-0.2-0.1-0.2-0.3-0.2-0.6c0-0.3,0-0.6,0.1-1c0.4-1.7,0.6-3.4,0.7-5.1C2680.6-5436.6,2680.7-5440,2680.8-5445.3z"/>
	</g>
	<g id="Layer_2_00000022525141607897252300000006842888333859387783_" transform="translate(2131.008 -5602.99)">
		<g id="Layer_1_00000159434737807434120400000015674984232349583029_" transform="translate(-0.007 -0.01)">
			<path id="Path_7" class="st1" d="M214.8,2.5c-13.5,0-24.4,10.9-24.4,24.4s10.9,24.4,24.4,24.4s24.4-10.9,24.4-24.4c0,0,0,0,0,0
				C239.2,13.4,228.3,2.5,214.8,2.5 M214.8,53.8c-14.8,0-26.9-12-26.9-26.9c0-14.8,12-26.9,26.9-26.9s26.9,12,26.9,26.9c0,0,0,0,0,0
				C241.7,41.7,229.7,53.8,214.8,53.8"/>
			<path id="Path_8" class="st1" d="M214.8,2.5c-13.5,0-24.4,10.9-24.4,24.4s10.9,24.4,24.4,24.4s24.4-10.9,24.4-24.4c0,0,0,0,0,0
				C239.2,13.4,228.3,2.5,214.8,2.5 M214.8,53.8c-14.8,0-26.9-12-26.9-26.9c0-14.8,12-26.9,26.9-26.9s26.9,12,26.9,26.9c0,0,0,0,0,0
				C241.7,41.7,229.7,53.8,214.8,53.8"/>
			<path id="Path_9" class="st1" d="M199.3,33.5l31.2-0.1c-0.2-5.1,2.9-10.2,4.2-12.2c-0.2,0-0.4-0.1-0.6-0.1
				c-1.9-0.3-4.4,2.9-4.4,2.9c-0.4-1.1-1.5-1.8-2.6-1.8c-1.4-0.1-2.6,0.9-2.7,2.3c-0.1,1,0.6,1.9,1.5,2.1l0,0
				c0.1-0.6,0.6-1.1,1.2-1.1c0.6,0.1,1,0.6,1,1.2c0,0,0,0.1,0,0.1c-0.6,3.3-5.8,3.2-6.3-0.5c-0.5,1.6-2.1,2.5-3.7,2.1
				c-0.8-0.2-1.5-0.8-1.9-1.6c0,0,1.5,0.2,1.8-0.8s-0.7-1.5-1.2-1.7c0,0,1-1.8,1.9-1.6s0.8,1.1,0.4,1.3c0.9,0.3,1.9-0.1,2.4-1
				c0.4-1-0.2-2.2-1.2-2.6c0,0,0,0,0,0c-1-0.4-3.2-0.6-4.9,3c0,0,1.7-3.8,1.6-5.4c-0.1-2-2.3-3.9-2.3-3.9s-2.2,1.9-2.2,3.9
				c0,1.6,1.6,5.4,1.6,5.4c-1.7-3.6-4-3.4-4.9-3c-1.1,0.3-1.7,1.5-1.3,2.5c0,0,0,0.1,0,0.1c0.4,0.9,1.5,1.3,2.4,0.9
				c-0.4-0.2-0.5-1.1,0.4-1.3s1.9,1.6,1.9,1.6c-0.5,0.2-1.4,0.6-1.1,1.7s1.8,0.8,1.8,0.8c-0.7,1.5-2.5,2.1-4,1.4
				c-0.8-0.4-1.3-1-1.6-1.9c-0.4,3.7-5.7,3.9-6.3,0.6c-0.1-0.6,0.3-1.2,0.8-1.3c0,0,0.1,0,0.1,0c0.6,0,1.1,0.4,1.2,1.1l0,0
				c1-0.2,1.6-1.1,1.5-2.1c-0.2-1.3-1.3-2.3-2.7-2.2c-1.2,0-2.2,0.8-2.6,1.8c0,0-2.4-3.1-4.4-2.8l-0.6,0.1
				C196.3,23.4,199.5,28.5,199.3,33.5"/>
			<path id="Path_10" class="st1" d="M199.6,35.8l0,0.9l31.3-0.2l0-0.9L199.6,35.8z"/>
			<path id="Path_11" class="st1" d="M15.7,35.7c-2.2,1.1-4.6,1.7-7,1.7c-7.8,0-13-4.4-13-11.8C-4.4,22.4-3,19.1-0.4,17
				c2.7-2.1,6-3.2,9.3-3.1c2.5,0,5.1,0.5,7.5,1.3c-0.4,1.6-0.6,3.3-0.6,4.9h-1v-2.3c0-0.9-1.3-1.5-2.8-2c-1.2-0.4-2.4-0.5-3.6-0.5
				c-6.1,0-9.3,4.4-9.3,9.9c0,6.4,4.2,10.5,10.7,10.5c2.3,0,4.6-0.7,6.6-1.9l0.3,0.3L15.7,35.7z"/>
			<path id="Path_12" class="st1" d="M34.5,33c-0.1,0.8,0,1.6,0.3,2.4c0.2,0.3,0.6,0.5,1.3,0.5l1.6,0.1v1c-1.7-0.1-3.2-0.1-4.7-0.1
				s-3.1,0-4.8,0.1v-1l1.5-0.1c0.8,0,1.2-0.2,1.4-0.5c0.3-0.8,0.4-1.6,0.3-2.4V18.4c0.1-0.8,0-1.6-0.3-2.4c-0.2-0.3-0.6-0.4-1.4-0.5
				l-1.3-0.1v-1c1.7,0,3.6,0.1,5.5,0.1s3.8-0.1,5.7-0.1h0.3c4.9,0,6.2,2.5,6.2,4.8c0,3.5-3.2,5.6-6.3,6.2l7.3,9.6
				c0.5,0.6,1.2,0.9,1.9,0.8v1c-0.8,0-1.6-0.1-2.3-0.1s-1.5,0.1-2.2,0.1c-0.4-0.6-0.9-1.2-1.3-1.7l-5.9-8c-0.5-0.7-1.1-1.3-1.7-2
				l0.2-0.4c0.3,0,0.6,0,0.9,0c0.6,0,1.3-0.1,1.9-0.2c2.3-0.3,4.1-2.2,4.2-4.5c0-3.5-2.6-4.5-5.1-4.5c-1.1,0-2.2,0.1-3.3,0.4
				L34.5,33z"/>
			<path id="Path_13" class="st1" d="M63,24.5c0,5.6,2.6,11.6,9,11.6c5.4,0,8-4.2,8-10.1c0-6.4-2.9-10.7-8.9-10.7
				C65.5,15.3,63,19.3,63,24.5 M59.5,25.7c0-6.7,4.7-11.8,12.1-11.8c6.9,0,11.8,3.9,11.8,11c0.1,6.8-5.4,12.4-12.3,12.5
				c-0.1,0-0.2,0-0.2,0C64.4,37.5,59.5,33,59.5,25.7"/>
			<path id="Path_14" class="st1" d="M109.6,19.5L104,33.8c-0.4,1.1-0.8,2.2-1.2,3.3h-1.6c-0.2-1.2-0.5-2.2-0.7-3.3l-3.9-16.6
				c-0.3-1.4-1-1.6-1.6-1.6l-0.9-0.1v-1c1.4,0,2.7,0.1,4.1,0.1s2.7-0.1,4.1-0.1v1l-1.4,0.1c-0.6,0.1-1.2,0.2-1.2,1.1
				c0,0.3,0.1,0.7,0.1,1l3.2,14.4h0.1l4-10.1c1-2.6,2-5.1,2.9-7.8h1c0.4,1.4,0.8,2.7,1.3,4.1l5,14h0.1l4.2-15.7c0-0.1,0-0.2,0-0.3
				c0-0.5-0.5-0.6-1.5-0.7l-1.2-0.1v-1c1.1,0,2.2,0.1,3.4,0.1s2.3-0.1,3.4-0.1v1l-1,0.1c-0.6,0-1.1,0.4-1.2,1l-5,17.4
				c-0.3,1-0.6,1.9-0.9,3.3H116c-0.7-2.6-1.5-4.4-2.3-6.7L109.6,19.5z"/>
			<path id="Path_15" class="st1" d="M139.5,18.4c0.1-0.8,0-1.6-0.3-2.4c-0.2-0.3-0.6-0.4-1.4-0.5l-1.4-0.1v-1
				c1.4,0,2.7,0.1,3.9,0.1c0.6,0,1.2-0.1,1.7-0.1l15.4,19h0.1V18.4c0.1-0.8,0-1.6-0.3-2.4c-0.2-0.3-0.6-0.4-1.3-0.5l-1.4-0.1v-1
				c1.3,0,2.6,0.1,3.7,0.1s2.5-0.1,3.9-0.1v1l-1.4,0.1c-0.8,0.1-1.2,0.2-1.4,0.5c-0.3,0.8-0.4,1.6-0.3,2.4v17.8
				c0,0.4,0.1,0.8,0.1,1.2l-2.9-0.5L141,18.1H141V33c-0.1,0.8,0,1.6,0.3,2.4c0.2,0.3,0.6,0.4,1.4,0.5L144,36v1
				c-1.4,0-2.6-0.1-3.9-0.1s-2.5,0.1-3.8,0.1v-1l1.4-0.1c0.8-0.1,1.2-0.2,1.4-0.5c0.3-0.8,0.4-1.6,0.3-2.4L139.5,18.4z"/>
			<path id="Path_16" class="st1" d="M281.9,35.7c-2.2,1.1-4.6,1.7-7,1.7c-7.8,0-13-4.4-13-11.8c-0.1-3.4,1.3-6.6,3.9-8.7
				c2.7-2.1,6-3.2,9.3-3.1c2.5,0,5.1,0.5,7.5,1.3c-0.4,1.6-0.6,3.2-0.6,4.9h-1v-2.3c0-0.9-1.3-1.5-2.8-2c-1.2-0.4-2.4-0.5-3.6-0.5
				c-6.1,0-9.3,4.4-9.3,9.9c0,6.4,4.2,10.5,10.6,10.5c2.3,0,4.6-0.7,6.6-1.9l0.3,0.3L281.9,35.7z"/>
			<path id="Path_17" class="st1" d="M300.8,33c-0.1,0.8,0,1.6,0.3,2.4c0.2,0.3,0.6,0.5,1.4,0.5L304,36v1c-1.7-0.1-3.2-0.1-4.7-0.1
				s-3.1,0-4.8,0.1v-1l1.5-0.1c0.8,0,1.2-0.2,1.4-0.5c0.3-0.8,0.4-1.6,0.3-2.4V18.4c0.1-0.8,0-1.6-0.3-2.4c-0.2-0.3-0.6-0.4-1.4-0.5
				l-1.3-0.1v-1c1.7,0,3.6,0.1,5.5,0.1s3.8-0.1,5.6-0.1h0.3c4.9,0,6.2,2.5,6.2,4.8c0,3.5-3.2,5.6-6.3,6.2l7.3,9.6
				c0.5,0.6,1.2,0.9,1.9,0.8v1c-0.8,0-1.6-0.1-2.3-0.1s-1.4,0.1-2.2,0.1c-0.4-0.6-0.9-1.2-1.3-1.7l-5.9-8c-0.5-0.7-1.1-1.3-1.7-2
				l0.2-0.4c0.3,0,0.6,0,0.9,0c0.6,0,1.3-0.1,1.9-0.2c2.3-0.3,4.1-2.2,4.2-4.5c0-3.5-2.6-4.5-5.1-4.5c-1.1,0-2.2,0.1-3.3,0.4
				L300.8,33z"/>
			<path id="Path_18" class="st1" d="M341,28.1l-4.1-9.6l-4.1,9.6H341z M346,32.6c0.3,0.6,0.6,1.5,1,2.2s0.7,1,1.3,1.1l1.1,0.1v1
				c-1.4,0-2.8-0.1-4.3-0.1c-1.1,0-2.6,0.1-4.3,0.1v-1l1.5-0.1c0.7,0,1.3-0.3,1.3-0.6c-0.1-0.7-0.4-1.4-0.7-2.1l-1.5-3.7h-9.3
				l-0.9,2.2c-0.5,1.1-0.8,2.2-1.1,3.3c0,0.7,0.6,0.8,1.6,0.9l1.2,0.1v1c-1.6,0-2.8-0.1-3.7-0.1c-1.3,0-2.5,0.1-3.7,0.1v-1l1.2-0.1
				c0.8-0.2,1.5-0.8,1.7-1.6l5.7-13.1c1-2.3,2.1-4.6,3-7h1L346,32.6z"/>
			<path id="Path_19" class="st1" d="M366.9,33c-0.1,0.8,0,1.6,0.3,2.4c0.2,0.3,0.6,0.5,1.4,0.5L370,36v1c-1.7-0.1-3.2-0.1-4.7-0.1
				s-3.1,0-4.8,0.1v-1l1.6-0.1c0.8,0,1.2-0.2,1.4-0.5c0.3-0.8,0.4-1.6,0.3-2.4V18.4c0.1-0.8,0-1.6-0.3-2.4c-0.2-0.3-0.6-0.4-1.4-0.5
				l-1.6-0.1v-1c0.9,0,1.8,0,2.7,0.1s1.8,0,2.7,0c2.2,0,5.1-0.1,7-0.1c1.5,0,2.9,0,4.2,0.1c-0.4,1.6-0.5,3.3-0.5,4.9h-1.1v-2
				c0-0.4,0-0.8-0.3-0.9c-1.8-0.5-3.8-0.8-5.7-0.7c-0.9,0-1.8,0.1-2.7,0.3v8.6c1,0.1,2.2,0.1,3.7,0.1c1.2,0.1,2.3,0,3.4-0.4
				c0.2-0.1,0.2-0.4,0.3-0.8l0.2-1.7h1c0,1.3-0.1,2.5-0.1,3.7s0.1,2.4,0.1,3.6h-1l-0.2-1.9c0-0.4-0.1-0.7-0.3-0.8
				c-0.4-0.3-1.5-0.4-3.4-0.4c-1.6,0-2.7,0-3.7,0.1L366.9,33z"/>
			<path id="Path_20" class="st1" d="M395.9,19.3c0-1.1,0-2.2-0.1-3.2h-5c-1,0-1.2,0.3-1.3,1.1l-0.1,2.5h-1c0-1.7-0.1-3.5-0.2-5.2
				c2.3,0,4.7,0.1,7,0.1h4.7c1.2,0,2.3,0,3.5-0.1s2.3,0,3.5,0c-0.2,1.7-0.2,3.5-0.2,5.2h-1l-0.1-2.5c-0.1-0.8-0.3-1.1-1.3-1.1h-5
				c-0.1,1.1-0.1,2.2-0.1,3.2V33c-0.1,0.8,0,1.6,0.3,2.4c0.2,0.3,0.6,0.5,1.4,0.5l1.5,0.1v1c-1.7-0.1-3.2-0.1-4.7-0.1
				s-3.1,0-4.8,0.1v-1l1.6-0.1c0.8,0,1.2-0.2,1.3-0.5c0.3-0.8,0.4-1.6,0.3-2.4L395.9,19.3z"/>
			<path id="Path_21" class="st1" d="M420.9,18.4c0.1-0.8,0-1.6-0.3-2.4c-0.2-0.3-0.6-0.4-1.4-0.5l-1.5-0.1v-1c0.9,0,1.8,0,2.7,0.1
				s1.8,0,2.7,0c2.8,0,5.8-0.1,7.6-0.1c1.5,0,2.9,0,4.2,0.1c-0.4,1.6-0.5,3.3-0.5,4.9h-1.1v-2c0-0.4,0-0.8-0.3-0.9
				c-2.1-0.6-4.2-0.8-6.3-0.7c-0.9,0-1.8,0.1-2.7,0.3v8.6c1,0.1,2.2,0.1,3.7,0.1c1.2,0.1,2.3,0,3.4-0.4c0.2-0.1,0.2-0.4,0.3-0.8
				l0.2-1.7h1c0,1.3-0.1,2.5-0.1,3.7s0.1,2.4,0.1,3.6h-1l-0.2-1.9c0-0.4-0.1-0.7-0.3-0.8c-0.3-0.3-1.4-0.4-3.4-0.4
				c-1.5,0-2.7,0-3.7,0.1v9c0.9,0.2,1.8,0.3,2.7,0.3c2.6,0,5.9-0.1,6.5-0.4s0.9-1.7,1.1-3.6h1.1c-0.3,1.7-0.5,3.5-0.5,5.3
				c-1.2,0-3.3,0.1-5.4,0.1h-1c-2.5,0-5-0.1-7-0.1c-1.2,0-2.3,0.1-3.5,0.1v-1l1.2-0.1c0.8-0.1,1.2-0.2,1.4-0.5
				c0.3-0.8,0.4-1.6,0.3-2.4L420.9,18.4z"/>
			<path id="Path_22" class="st1" d="M453.1,35.2c1.2,0.2,2.5,0.3,3.7,0.3c1.8,0.1,3.6-0.3,5.3-1c3.6-1.6,5.1-5,5.1-9.3
				c0-8-4.6-9.5-10.4-9.5c-1.2,0-2.5,0.1-3.7,0.3L453.1,35.2z M450.1,18.4c0.1-0.8,0-1.6-0.3-2.4c-0.2-0.3-0.6-0.4-1.4-0.5l-1.3-0.1
				v-1c2.2,0,4.2,0.1,6.4,0.1s4.2-0.1,5.6-0.1h0.4c6.4,0,11.1,3.7,11.1,9.8c0,5.3-3,9.8-6.9,11.5c-2,0.8-4.1,1.2-6.3,1.1h-0.6
				c-1.3,0-2.7-0.1-4.2-0.1s-2.9,0.1-4.4,0.1v-0.7l1-0.5c0.6-0.5,0.9-1.2,0.8-1.9L450.1,18.4z"/>
		</g>
	</g>
</g>
</svg>
